<?xml version="1.0" standalone="no"?>
<!DOCTYPE svg PUBLIC "-//W3C//DTD SVG 1.1//EN" "http://www.w3.org/Graphics/SVG/1.1/DTD/svg11.dtd" >
<svg xmlns="http://www.w3.org/2000/svg" xmlns:xlink="http://www.w3.org/1999/xlink" version="1.1">
<metadata></metadata>
<defs>
<font id="poppinssemibold" horiz-adv-x="1384" >
<font-face units-per-em="2048" ascent="1638" descent="-410" />
<missing-glyph horiz-adv-x="446" />
<glyph horiz-adv-x="0" />
<glyph horiz-adv-x="682" />
<glyph horiz-adv-x="0" />
<glyph horiz-adv-x="0" />
<glyph unicode="&#xd;" horiz-adv-x="446" />
<glyph unicode=" "  horiz-adv-x="446" />
<glyph unicode="&#x09;" horiz-adv-x="446" />
<glyph unicode="&#xa0;" horiz-adv-x="446" />
<glyph unicode="!" horiz-adv-x="718" d="M213 1505h317l-36 -1024h-244zM217 0v301h311v-301h-311z" />
<glyph unicode="&#x22;" horiz-adv-x="761" d="M88 1636h240l-21 -436h-194zM434 1636h240l-21 -436h-194z" />
<glyph unicode="#" horiz-adv-x="1755" d="M45 356v262h363l61 281h-299v262h354l76 355h268l-75 -355h376l76 355h268l-75 -355h272v-262h-328l-61 -281h264v-262h-319l-76 -356h-268l75 356h-376l-76 -356h-269l76 356h-307zM676 618h377l61 281h-377z" />
<glyph unicode="$" horiz-adv-x="1255" d="M86 1065q0 121 64.5 211t178 139t257.5 51v172h78v-174q213 -14 338.5 -123.5t142.5 -279.5h-311q-10 68 -54.5 116t-115.5 62v-389l51 -16q145 -45 237 -88.5t157 -128.5t65 -222q0 -111 -57.5 -204t-172.5 -149t-278 -56h-2v-164h-78v168q-213 18 -347.5 132 t-148.5 296h307q8 -74 57.5 -130.5t131.5 -72.5v401l-41 13q-147 43 -238.5 85t-156 127t-64.5 224zM395 1077q0 -73 49.5 -119.5t141.5 -80.5v368q-90 -4 -140.5 -47t-50.5 -121zM664 207q94 2 147 52t53 130q0 76 -52 122t-148 79v-383z" />
<glyph unicode="%" horiz-adv-x="1533" d="M57 1141q0 154 91.5 240.5t234.5 86.5t234.5 -87t91.5 -240q0 -154 -91.5 -241t-234.5 -87t-234.5 87t-91.5 241zM225 0l805 1450h279l-805 -1450h-279zM252 1141q0 -70 35 -112t94 -42t96 42t37 112t-37 111.5t-96 41.5t-94 -42t-35 -111zM827 309q0 154 91.5 241 t234.5 87t233.5 -87t90.5 -241t-90.5 -240.5t-233.5 -86.5t-234.5 87t-91.5 240zM1022 309q0 -71 35 -113t94 -42t96 42t37 113q0 70 -37 113t-96 43t-94 -42t-35 -114z" />
<glyph unicode="&#x26;" horiz-adv-x="1411" d="M63 426q0 125 48.5 219t131.5 146.5t185 56.5l-25 37q-41 57 -63.5 113.5t-22.5 125.5q0 88 46.5 165t137.5 124t218 47q182 0 281.5 -82t127.5 -211q20 -61 21 -131l-2 -39h-268q0 51 -5 70q-2 74 -40.5 114t-108.5 40q-63 0 -100 -37t-37 -90q0 -47 18.5 -82t61.5 -86 l735 -926h-291l-221 258q-16 -41 -29 -63q-37 -94 -129 -151.5t-215 -57.5q-137 0 -240.5 57t-159 156.5t-55.5 226.5zM311 434q0 -94 60.5 -150.5t148.5 -56.5t144.5 54.5t56.5 140.5q0 90 -64.5 149.5t-152.5 59.5q-84 0 -138.5 -51.5t-54.5 -145.5z" />
<glyph unicode="'" horiz-adv-x="423" d="M88 1636h248l-27 -436h-194z" />
<glyph unicode="(" horiz-adv-x="819" d="M66 823q0 391 151.5 702.5t398.5 504.5h281v-29q-553 -457 -553 -1178t553 -1177v-27h-281q-248 193 -399 503t-151 701z" />
<glyph unicode=")" horiz-adv-x="823" d="M-74 -354q553 457 553 1177q0 721 -553 1178v29h281q248 -193 399.5 -503t151.5 -702q0 -393 -151.5 -704t-399.5 -502h-281v27z" />
<glyph unicode="*" horiz-adv-x="1040" d="M135 1030l268 96l-264 95l105 186l225 -180l-47 284h215l-47 -284l225 180l103 -186l-269 -97l269 -94l-109 -192l-219 184l47 -285h-213l45 285l-221 -186z" />
<glyph unicode="+" horiz-adv-x="1159" d="M57 596v264h383v391h279v-391h383v-264h-383v-389h-279v389h-383z" />
<glyph unicode="," horiz-adv-x="438" d="M61 -80v266h252q49 -110 49 -223q0 -127 -66.5 -209t-205.5 -82v111q53 0 78 25.5t25 91.5v20h-132z" />
<glyph unicode="-" horiz-adv-x="1071" d="M-4 610v240h871v-240h-871z" />
<glyph unicode="." horiz-adv-x="432" d="M59 0v301h312v-301h-312z" />
<glyph unicode="/" horiz-adv-x="784" d="M-20 -371l555 2310h278l-555 -2310h-278z" />
<glyph unicode="0" horiz-adv-x="1294" d="M96 735q0 -735 553 -735q293 0 422 196.5t129 538.5q0 340 -129 536.5t-422 196.5q-553 0 -553 -733zM381 735q0 221 54 341t214 120q158 0 212 -120t54 -341q0 -223 -54 -343t-212 -120q-160 0 -214 120t-54 343z" />
<glyph unicode="1" horiz-adv-x="675" d="M25 1176v270h520v-1446h-303v1176h-217z" />
<glyph unicode="2" horiz-adv-x="1159" d="M76 12v215q694 482 694 799q0 96 -46 151.5t-144 55.5q-203 0 -215 -277h-281q12 256 155.5 388.5t362.5 132.5q223 0 343 -116t120 -308q0 -152 -89 -304.5t-226.5 -280.5t-288.5 -220h633v-236h-1018z" />
<glyph unicode="3" horiz-adv-x="1226" d="M88 467h283q10 -111 72.5 -175.5t177.5 -64.5q98 0 153 54.5t55 142.5q0 104 -79.5 159.5t-235.5 55.5h-59v235h59q287 -4 287 199q0 88 -51.5 138.5t-139.5 50.5q-92 0 -151.5 -58.5t-67.5 -163.5h-282q12 221 143 341t364 120q148 0 253.5 -51t159.5 -141t54 -201 q0 -139 -75.5 -228t-200.5 -110v-10q303 -90 303 -357q0 -186 -125 -301.5t-352 -115.5q-242 0 -385.5 119.5t-159.5 361.5z" />
<glyph unicode="4" horiz-adv-x="1335" d="M80 291v239l692 932h309v-921h189v-250h-189v-291h-290v291h-711zM375 541h438v583z" />
<glyph unicode="5" horiz-adv-x="1296" d="M172 444h281q16 -92 75.5 -146t157.5 -54q119 0 177.5 72.5t58.5 193.5q0 115 -61.5 178.5t-174.5 63.5q-82 0 -139.5 -36t-83.5 -95h-281v854h948v-254h-686v-365q47 55 130 89t184 34q150 0 249 -64.5t147 -172t48 -238.5q0 -231 -130 -370.5t-372 -139.5 q-158 0 -274.5 56t-182 157.5t-71.5 236.5z" />
<glyph unicode="6" horiz-adv-x="1280" d="M121 721q0 395 128 585.5t415 190.5q219 0 335.5 -125t133.5 -319h-271q-33 213 -217 213q-143 0 -208.5 -126t-57.5 -395q33 98 128 157t222 59q209 0 329 -126t120 -358q0 -143 -57.5 -253.5t-171 -174t-275.5 -63.5q-315 0 -434 195.5t-119 539.5zM403 498 q0 -115 67 -190t196 -75q111 0 176 66t65 182q0 123 -66.5 188.5t-178.5 65.5q-106 0 -182.5 -61.5t-76.5 -175.5z" />
<glyph unicode="7" horiz-adv-x="1040" d="M33 1210v248h962v-215l-528 -1243h-299l534 1210h-669z" />
<glyph unicode="8" horiz-adv-x="1304" d="M104 422q0 133 69 226t198 143q-115 41 -173.5 124.5t-58.5 200.5q0 105 58.5 195t174 145t279.5 55t280 -55t174 -145t58 -195q0 -119 -57 -202t-172 -123q129 -49 197.5 -142.5t68.5 -226.5q0 -143 -71.5 -246.5t-195.5 -157t-282 -53.5t-281.5 53.5t-194.5 157 t-71 246.5zM385 438q0 -108 71.5 -171.5t194.5 -63.5t196 63.5t73 171.5q0 111 -75 169.5t-194 58.5q-117 0 -191.5 -58.5t-74.5 -169.5zM424 1069q0 -98 61.5 -151.5t165.5 -53.5q106 0 168 53.5t62 151.5t-62.5 152.5t-167.5 54.5q-102 0 -164.5 -54.5t-62.5 -152.5z" />
<glyph unicode="9" horiz-adv-x="1236" d="M86 1006q0 141 57.5 252.5t171 175t275.5 63.5q315 0 434 -191.5t119 -531.5q0 -387 -120 -587.5t-400 -200.5q-150 0 -257.5 59t-166 160.5t-68.5 224.5h270q34 -213 222 -213q143 0 206.5 126t55.5 394q-33 -98 -128 -156.5t-222 -58.5q-209 0 -329 126t-120 358z M356 1001q0 -123 66.5 -189.5t179.5 -66.5q104 0 181 62.5t77 177.5t-66.5 189.5t-195.5 74.5q-111 0 -176.5 -65.5t-65.5 -182.5z" />
<glyph unicode=":" horiz-adv-x="499" d="M102 0v301h312v-301h-312zM102 852v301h312v-301h-312z" />
<glyph unicode=";" horiz-adv-x="647" d="M186 842v301h312v-301h-312zM198 -80v266h252q49 -110 49 -223q0 -127 -66.5 -209t-205.5 -82v111q53 0 78 25.5t25 91.5v20h-132z" />
<glyph unicode="&#x3c;" horiz-adv-x="923" d="M57 729l447 461h362l-448 -461l448 -459h-362z" />
<glyph unicode="=" horiz-adv-x="1230" d="M57 354v260h1117v-260h-1117zM57 842v262h1117v-262h-1117z" />
<glyph unicode="&#x3e;" horiz-adv-x="923" d="M57 270l447 459l-447 461h361l448 -461l-448 -459h-361z" />
<glyph unicode="?" horiz-adv-x="1056" d="M49 1102q-4 123 53.5 220t169 153.5t265.5 56.5q208 0 335 -110.5t127 -313.5q0 -205 -130 -313.5t-349 -112.5v-207h-272v395h117q166 0 258 50.5t92 185.5q0 90 -51.5 140t-137.5 50q-94 0 -149 -54t-55 -140h-273zM231 0v301h312v-301h-312z" />
<glyph unicode="@" horiz-adv-x="2500" d="M94 469q0 354 170 623.5t464 417t654 147.5q326 0 562.5 -111.5t362.5 -323.5t126 -507q0 -203 -81 -371t-216 -264t-291 -96q-137 0 -222 63.5t-97 198.5q-70 -127 -173.5 -194.5t-250.5 -67.5q-127 0 -224.5 60t-151.5 170t-54 253q0 45 2 68q12 176 99 316t229.5 219 t314.5 79q223 0 355 -120t132 -324q0 -43 -6 -91l-33 -221q-4 -37 -4 -49q0 -59 25.5 -83.5t79.5 -24.5q72 0 134 54t101 159.5t39 255.5q0 215 -92 376.5t-271.5 250.5t-437.5 89q-303 0 -521 -125t-330.5 -342t-112.5 -485q0 -373 220 -576.5t642 -203.5l-53 -236 q-348 4 -592 125t-371 347.5t-127 543.5zM950 510q0 -131 71 -202.5t179 -71.5q84 0 158 46t120 135t46 216q0 129 -70 197.5t-186 68.5q-86 0 -159 -46t-116 -134t-43 -209z" />
<glyph unicode="A" horiz-adv-x="1441" d="M25 0l532 1430h330l530 -1430h-305l-100 291h-580l-102 -291h-305zM508 510h426l-213 610z" />
<glyph unicode="B" horiz-adv-x="1298" d="M131 0v1446h608q219 0 337 -96.5t118 -270.5q0 -135 -70.5 -221t-185.5 -113q131 -26 210 -123.5t79 -228.5q0 -182 -122 -287.5t-353 -105.5h-621zM420 236h274q115 0 176.5 50t61.5 146t-62.5 148.5t-177.5 52.5h-272v-397zM420 840h260q109 0 165 48t56 138t-55 139 t-170 49h-256v-374z" />
<glyph unicode="C" horiz-adv-x="1554" d="M86 723q0 215 87 383t244.5 261t366.5 93q271 0 449 -139t235 -379h-303q-47 117 -146 184.5t-239 67.5q-115 0 -207 -57.5t-143 -164t-51 -249.5q0 -141 51 -247.5t143.5 -164t206.5 -57.5q139 0 238.5 67.5t146.5 184.5h303q-57 -240 -235 -379t-449 -139 q-207 0 -365.5 93t-245.5 261t-87 381z" />
<glyph unicode="D" horiz-adv-x="1488" d="M131 0v1446h514q236 0 407 -89t261 -252t90 -380q0 -215 -90 -379t-261 -255t-407 -91h-514zM420 258h201q233 0 361 123t128 344q0 223 -128 346t-361 123h-201v-936z" />
<glyph unicode="E" horiz-adv-x="1075" d="M131 0v1446h862v-229h-573v-375h512v-221h-512v-390h573v-231h-862z" />
<glyph unicode="F" horiz-adv-x="1091" d="M131 0v1446h897v-229h-608v-388h487v-221h-487v-608h-289z" />
<glyph unicode="G" horiz-adv-x="1572" d="M86 723q0 215 89 382t251 261t375 94q264 0 438 -130t223 -351h-303q-43 98 -136 156.5t-220 58.5q-125 0 -221.5 -57.5t-149.5 -164t-53 -249.5q0 -227 122 -354t333 -127q156 0 267 92t144 256h-489v207h731v-279q-31 -143 -120 -264t-233.5 -193.5t-330.5 -72.5 q-213 0 -376 93t-252 260t-89 382z" />
<glyph unicode="H" horiz-adv-x="1460" d="M131 0v1446h289v-586h618v586h291v-1446h-291v629h-618v-629h-289z" />
<glyph unicode="I" horiz-adv-x="550" d="M131 0v1446h289v-1446h-289z" />
<glyph unicode="J" horiz-adv-x="1073" d="M37 475h285q0 -111 46 -170t136 -59q82 0 121 48t39 132v1020h288v-1020q0 -209 -115.5 -324.5t-320.5 -115.5q-221 0 -350 127t-129 362z" />
<glyph unicode="K" horiz-adv-x="1333" d="M131 0v1446h289v-649l536 649h349l-613 -711l613 -735h-351l-534 662v-662h-289z" />
<glyph unicode="L" horiz-adv-x="946" d="M131 0v1446h289v-1225h485v-221h-774z" />
<glyph unicode="M" horiz-adv-x="1820" d="M131 0v1430h350l434 -1076l426 1076h349v-1430h-287v997l-367 -997h-250l-366 993v-993h-289z" />
<glyph unicode="N" horiz-adv-x="1486" d="M131 0v1446h289l647 -991v991h289v-1446h-289l-647 983v-983h-289z" />
<glyph unicode="O" horiz-adv-x="1617" d="M86 727q0 213 95 382t260 263t368 94t367.5 -94t260 -263t95.5 -382t-95.5 -383t-260 -264t-367.5 -94t-368 94t-260 264t-95 383zM381 727q0 -143 54 -250.5t150.5 -165t223.5 -57.5t223 57.5t150.5 165t54.5 250.5t-54.5 250.5t-150.5 165t-223 57.5t-223.5 -57.5 t-150.5 -165t-54 -250.5z" />
<glyph unicode="P" horiz-adv-x="1230" d="M131 0v1446h526q256 0 386.5 -123t130.5 -334q0 -207 -134.5 -329.5t-382.5 -122.5h-237v-537h-289zM420 768h207q254 0 254 221q0 109 -59.5 166t-194.5 57h-207v-444z" />
<glyph unicode="Q" horiz-adv-x="1617" d="M86 727q0 213 95 382t260 263t368 94t367.5 -94t260 -263t95.5 -382q0 -199 -82 -359.5t-227 -258.5l342 -373h-351l-225 270q-82 -20 -180 -20q-203 0 -368 94t-260 264t-95 383zM381 727q0 -143 54 -250.5t150.5 -165t223.5 -57.5t223 57.5t150.5 165t54.5 250.5 t-54.5 250.5t-150.5 165t-223 57.5t-223.5 -57.5t-150.5 -165t-54 -250.5z" />
<glyph unicode="R" horiz-adv-x="1261" d="M131 0v1446h551q252 0 384 -123t132 -324q0 -164 -91 -274.5t-263 -146.5l360 -578h-319l-338 563h-127v-563h-289zM420 762h237q248 0 248 219q0 104 -60.5 162.5t-187.5 58.5h-237v-440z" />
<glyph unicode="S" horiz-adv-x="1206" d="M86 1065q0 186 134 293.5t355 107.5q229 0 365.5 -110.5t155.5 -294.5h-312q-12 78 -65 128t-146 50q-80 0 -129 -42t-49 -122q0 -63 38 -105t96.5 -69t158.5 -59q139 -49 226 -92t148.5 -129t61.5 -226q0 -110 -55 -203.5t-163.5 -149.5t-264.5 -56q-154 0 -274.5 52 t-193.5 150.5t-83 229.5h307q10 -88 70.5 -146.5t161.5 -58.5q90 0 138 48t48 124q0 68 -39 112t-98.5 70.5t-163.5 61.5q-135 45 -221 89t-146.5 128t-60.5 219z" />
<glyph unicode="T" horiz-adv-x="1142" d="M29 1217v229h1085v-229h-399v-1217h-289v1217h-397z" />
<glyph unicode="U" horiz-adv-x="1398" d="M123 598v848h287v-848q0 -170 74.5 -255t215.5 -85q139 0 214 85t75 255v848h287v-848q0 -201 -75 -339t-207 -205.5t-300 -67.5q-260 0 -415.5 155.5t-155.5 456.5z" />
<glyph unicode="V" horiz-adv-x="1443" d="M25 1446h309l387 -1145l389 1145h309l-512 -1446h-370z" />
<glyph unicode="W" horiz-adv-x="2093" d="M66 1446h313l221 -1120l287 1120h317l289 -1120l221 1120h314l-355 -1446h-356l-270 1049l-273 -1049h-354z" />
<glyph unicode="X" horiz-adv-x="1347" d="M25 1446h342l319 -483l285 483h329l-452 -727l475 -719h-342l-326 494l-288 -494h-330l455 739z" />
<glyph unicode="Y" horiz-adv-x="1320" d="M25 1446h331l308 -633l307 633h325l-489 -940v-506h-291v506z" />
<glyph unicode="Z" horiz-adv-x="1173" d="M90 0v221l660 993h-650v232h975v-221l-665 -992h673v-233h-993z" />
<glyph unicode="[" horiz-adv-x="833" d="M186 -371v2310h547v-233h-274v-1843h274v-234h-547z" />
<glyph unicode="\" horiz-adv-x="1466" d="M270 1939h279l584 -2310h-277z" />
<glyph unicode="]" horiz-adv-x="831" d="M98 -137h277v1843h-277v233h547v-2310h-547v234z" />
<glyph unicode="^" d="M63 342l492 1092h276l490 -1092h-287l-340 758l-344 -758h-287z" />
<glyph unicode="_" horiz-adv-x="1376" d="M92 -76h1202v-280h-1202v280z" />
<glyph unicode="`" horiz-adv-x="616" d="M45 1442v221l471 -246v-196z" />
<glyph unicode="a" d="M74 567q0 178 64.5 310.5t179 202t257.5 69.5q144 0 246.5 -67.5t145.5 -182.5v236h286v-1135h-286v238q-43 -115 -145.5 -183.5t-246.5 -68.5q-143 0 -257.5 69.5t-179 201.5t-64.5 310zM367 567q0 -154 81.5 -240.5t217.5 -86.5q131 0 216 89t85 238q0 152 -85 241 t-216 89q-136 0 -217.5 -88t-81.5 -242z" />
<glyph unicode="b" d="M131 0v1516h289v-617q43 115 144.5 182.5t244.5 67.5t258 -69.5t179.5 -202t64.5 -310.5t-64.5 -310t-179.5 -201.5t-258 -69.5t-244.5 68.5t-144.5 183.5v-238h-289zM418 567q0 -150 85 -238.5t216 -88.5q135 0 217 87t82 240q0 154 -82 242t-217 88q-131 0 -216 -89 t-85 -241z" />
<glyph unicode="c" horiz-adv-x="1263" d="M74 567q0 178 71.5 310.5t200.5 202t295 69.5q219 0 365.5 -119t183.5 -323h-305q-18 90 -84 142t-166 52q-115 0 -191.5 -85t-76.5 -249t76.5 -249t191.5 -85q100 0 165.5 52.5t84.5 142.5h305q-37 -205 -183.5 -323.5t-365.5 -118.5q-166 0 -295 70.5t-200.5 201.5 t-71.5 309z" />
<glyph unicode="d" d="M74 567q0 178 64.5 310.5t179 202t257.5 69.5q144 0 245.5 -67.5t146.5 -182.5v617h286v-1516h-286v238q-45 -115 -146.5 -183.5t-245.5 -68.5q-143 0 -257.5 69.5t-179 201.5t-64.5 310zM367 567q0 -154 81.5 -240.5t217.5 -86.5q131 0 216 89t85 238q0 152 -85 241 t-216 89q-136 0 -217.5 -88t-81.5 -242z" />
<glyph unicode="e" horiz-adv-x="1271" d="M74 567q0 178 71.5 310.5t200.5 202t295 69.5q168 0 294 -69.5t194.5 -191.5t68.5 -278q0 -43 -10 -98h-832q6 -152 82 -223.5t189 -71.5q100 0 166.5 49t85.5 133h305q-23 -119 -96.5 -213t-189.5 -147t-257 -53q-166 0 -295 70.5t-200.5 201.5t-71.5 309zM356 639h551 v19q-1 125 -73 192q-78 72 -193 72q-117 0 -196.5 -72t-88.5 -211z" />
<glyph unicode="f" horiz-adv-x="733" d="M29 891v244h145v26q0 203 116 312.5t343 109.5q39 0 59 -2v-250q-19 1 -37 1q-98 0 -141 -38q-51 -45 -51 -157v-2h229v-244h-229v-891h-289v891h-145z" />
<glyph unicode="g" d="M74 567q0 178 64.5 310.5t179 202t257.5 69.5q144 0 246.5 -67.5t145.5 -182.5v236h286v-1139q0 -158 -62.5 -284t-186 -197.5t-299.5 -71.5q-246 0 -397.5 116.5t-184.5 317.5h285q25 -86 95 -134t181 -48q127 0 205 74.5t78 226.5v242q-43 -115 -145.5 -183.5 t-246.5 -68.5q-143 0 -257.5 69.5t-179 201.5t-64.5 310zM367 567q0 -154 81.5 -240.5t217.5 -86.5q131 0 216 89t85 238q0 152 -85 241t-216 89q-136 0 -217.5 -88t-81.5 -242z" />
<glyph unicode="h" horiz-adv-x="1359" d="M131 0v1516h289v-609q45 115 148.5 179.5t238.5 64.5q197 0 313.5 -129t116.5 -363v-659h-287v627q0 135 -69.5 209.5t-190.5 74.5q-123 0 -196.5 -79.5t-73.5 -229.5v-602h-289z" />
<glyph unicode="i" horiz-adv-x="550" d="M98 1460q0 70 49.5 114t128.5 44q80 0 129.5 -44t49.5 -114q0 -68 -49.5 -111.5t-129.5 -43.5t-129 44t-49 111zM131 0v1135h289v-1135h-289z" />
<glyph unicode="j" horiz-adv-x="557" d="M-61 -291h81q63 0 91 26.5t28 92.5v1307h289v-1307q0 -369 -371 -369h-118v250zM104 1460q0 70 49.5 114t129.5 44t129 -45t49 -113t-49.5 -111.5t-128.5 -43.5q-80 0 -129.5 44t-49.5 111z" />
<glyph unicode="k" horiz-adv-x="1155" d="M131 0v1516h289v-852l373 471h342l-478 -566l490 -569h-352l-375 496v-496h-289z" />
<glyph unicode="l" horiz-adv-x="550" d="M131 0v1516h289v-1516h-289z" />
<glyph unicode="m" horiz-adv-x="2144" d="M131 0v1135h289v-215q45 111 142 171t226 60q137 0 238.5 -65.5t153.5 -188.5q53 117 158.5 185.5t236.5 68.5q207 0 326.5 -128t119.5 -364v-659h-286v627q0 131 -66.5 201.5t-183.5 70.5q-121 0 -192.5 -75.5t-71.5 -221.5v-602h-287v627q0 131 -66.5 201.5 t-183.5 70.5q-121 0 -192.5 -75.5t-71.5 -221.5v-602h-289z" />
<glyph unicode="n" horiz-adv-x="1359" d="M131 0v1135h289v-228q45 115 148.5 179.5t238.5 64.5q197 0 313.5 -129t116.5 -363v-659h-287v627q0 135 -69.5 209.5t-190.5 74.5q-123 0 -196.5 -79.5t-73.5 -229.5v-602h-289z" />
<glyph unicode="o" horiz-adv-x="1310" d="M74 567q0 178 75.5 310.5t207.5 202t298 69.5t298 -69.5t208 -202t76 -310.5t-76 -309t-208 -201.5t-298 -70.5t-298 70.5t-207.5 201.5t-75.5 309zM367 567q0 -162 84 -246.5t204 -84.5q121 0 205 85t84 246q0 162 -84 247t-205 85q-120 0 -204 -85t-84 -247z" />
<glyph unicode="p" d="M131 -541v1676h289v-236q43 115 144.5 182.5t244.5 67.5t258 -69.5t179.5 -202t64.5 -310.5t-64.5 -310t-179.5 -201.5t-258 -69.5t-244.5 68.5t-144.5 183.5v-779h-289zM418 567q0 -150 85 -238.5t216 -88.5q135 0 217 87t82 240q0 154 -82 242t-217 88q-131 0 -216 -89 t-85 -241z" />
<glyph unicode="q" d="M74 563q0 172 69.5 304t188.5 206t264 74q131 0 225 -56.5t146 -158.5v203h286v-1676h-286v760q-55 -111 -148.5 -171t-222.5 -60q-145 0 -264 71.5t-188.5 202.5t-69.5 301zM367 563q0 -158 85 -240.5t214 -82.5q80 0 149.5 37.5t110.5 111.5t41 178t-41 178t-109.5 112 t-150.5 38q-129 0 -214 -87t-85 -245z" />
<glyph unicode="r" horiz-adv-x="849" d="M131 0v1135h289v-217q63 108 167.5 170.5t233.5 62.5v-309h-84q-317 0 -317 -295v-547h-289z" />
<glyph unicode="s" horiz-adv-x="1107" d="M88 369h277q10 -84 73.5 -132.5t165.5 -48.5q74 0 113 36t39 93q0 49 -34 80t-84 47.5t-142 38.5q-127 29 -206 58.5t-135.5 95t-56.5 180.5q0 147 113 239.5t311 92.5q207 0 332 -104.5t156 -278.5h-271q-16 82 -73.5 131t-149.5 49q-74 0 -115 -34.5t-41 -94.5 q0 -47 33 -75.5t82 -45t141 -39.5q129 -29 210 -60.5t139.5 -100t58.5 -185.5q0 -145 -113.5 -235t-306.5 -90q-221 0 -354 99t-162 284z" />
<glyph unicode="t" horiz-adv-x="813" d="M35 891v244h158v280h288v-280h254v-244h-254v-496q0 -82 33 -114.5t111 -32.5h112v-248h-151q-190 0 -291.5 92t-101.5 307v492h-158z" />
<glyph unicode="u" horiz-adv-x="1347" d="M111 475v660h286v-627q0 -135 70 -210t188 -75q125 0 199 80t74 229v603h289v-1135h-289v229q-45 -115 -148.5 -179t-238.5 -64q-197 0 -313.5 129t-116.5 360z" />
<glyph unicode="v" horiz-adv-x="1247" d="M27 1135h309l289 -846l286 846h308l-420 -1135h-353z" />
<glyph unicode="w" horiz-adv-x="1767" d="M14 1135h289l184 -877l252 877h305l254 -877l187 877h270l-305 -1135h-320l-243 825l-250 -825h-320z" />
<glyph unicode="x" horiz-adv-x="1161" d="M20 1135h324l252 -359l217 359h317l-380 -576l395 -559h-324l-258 365l-217 -365h-317l374 592z" />
<glyph unicode="y" horiz-adv-x="1243" d="M4 1135h322l309 -770l287 770h317l-694 -1676h-320l256 574z" />
<glyph unicode="z" horiz-adv-x="970" d="M49 0v229l522 666h-510v240h840v-228l-536 -665h557v-242h-873z" />
<glyph unicode="{" horiz-adv-x="870" d="M102 709v106q209 33 209 234q0 61 -20 184q-2 12 -12.5 78.5t-10.5 138.5q0 154 47 262.5t106.5 169t110.5 86.5h273v-22q-113 -51 -191.5 -176t-78.5 -312q0 -55 7 -112.5t15 -106.5q20 -119 21 -182q0 -246 -232 -293v-4q117 -23 174.5 -98.5t57.5 -194.5 q0 -61 -21 -180q-8 -49 -15 -107.5t-7 -113.5q0 -186 78.5 -311.5t191.5 -176.5v-22h-273q-51 27 -110.5 87t-106.5 168.5t-47 262.5q0 72 10.5 138.5t12.5 78.5q20 123 20 184q0 199 -209 234z" />
<glyph unicode="|" horiz-adv-x="477" d="M94 -248v1903h289v-1903h-289z" />
<glyph unicode="}" horiz-adv-x="849" d="M78 -422q70 33 131 105.5t99 178t38 228.5q0 100 -22 221q-2 16 -10.5 71.5t-8.5 109.5q0 223 230 268v4q-230 47 -230 268q0 55 8.5 111.5t10.5 70.5q23 121 22 220q0 123 -38 228t-99.5 178t-130.5 106v22h268q51 -27 110.5 -87t106.5 -168.5t47 -262.5 q0 -72 -10 -138.5t-12 -78.5q-20 -123 -21 -184q0 -86 46 -153t163 -81v-106q-117 -12 -163 -80t-46 -154q0 -61 21 -184q2 -12 12 -79t10 -138q0 -154 -47 -262.5t-106.5 -169t-110.5 -86.5h-268v22z" />
<glyph unicode="~" horiz-adv-x="1210" d="M57 451q33 201 127.5 299t235.5 98q63 0 113.5 -20.5t115.5 -57.5q57 -31 90 -45t68 -14q104 0 127 139h219q-31 -201 -125 -299t-237 -98q-61 0 -110.5 19.5t-119.5 57.5q-53 31 -87 45.5t-71 14.5q-104 0 -129 -139h-217z" />
<glyph unicode="&#xa1;" horiz-adv-x="751" d="M213 -354h317l-36 1024h-244zM217 850h311v301h-311v-301z" />
<glyph unicode="&#xa2;" horiz-adv-x="1193" d="M74 532q0 229 126 364.5t343 154.5v184h127v-182q184 -16 308 -125t142 -289h-266q-18 88 -83.5 136t-154.5 48q-119 0 -192.5 -75.5t-73.5 -215.5q0 -141 74 -215.5t192 -74.5q89 0 155.5 49t82.5 135h266q-18 -180 -142 -289.5t-308 -126.5v-188h-127v190 q-215 18 -342 154.5t-127 365.5z" />
<glyph unicode="&#xa3;" horiz-adv-x="1275" d="M80 606v195h182q-55 170 -55 301q0 129 58.5 226t165 149.5t243.5 52.5q223 0 351 -125t146 -326h-268q-10 96 -67.5 155.5t-151.5 59.5q-90 0 -145.5 -58t-55.5 -165q0 -49 11.5 -97t37.5 -132l13 -41h364v-195h-315q4 -41 4 -59q0 -84 -36 -170t-113 -158h720v-227 h-1001l-37 143q100 90 147.5 184.5t47.5 225.5q0 29 -7 61h-239z" />
<glyph unicode="&#xa4;" horiz-adv-x="1150" d="M133 436l115 113q-72 94 -72 225q0 135 76 227l-119 117l109 111l133 -133q86 43 203 43q111 0 198 -41l131 131l111 -111l-115 -112q80 -92 80 -232q0 -131 -76 -227l111 -111l-111 -110l-125 123q-88 -43 -204 -43q-119 0 -209 47l-127 -127zM401 772 q0 -94 50.5 -145.5t126.5 -51.5q75 0 127.5 51.5t52.5 145.5t-52.5 146.5t-127.5 52.5q-76 0 -126.5 -52.5t-50.5 -146.5z" />
<glyph unicode="&#xa5;" horiz-adv-x="1357" d="M45 1446h332l307 -676l307 676h326l-316 -606h234v-193h-334l-65 -125h399v-194h-408v-328h-290v328h-410v194h401l-65 125h-336v193h235z" />
<glyph unicode="&#xa6;" horiz-adv-x="686" d="M199 -248v817h288v-817h-288zM199 840v815h288v-815h-288z" />
<glyph unicode="&#xa7;" horiz-adv-x="1193" d="M76 545q0 106 61.5 191t190.5 122q-88 59 -137.5 136t-49.5 167q0 154 117 247t328 93q205 0 326.5 -107.5t140.5 -287.5h-287q-4 86 -51 137t-135 51q-68 0 -108 -29.5t-40 -88.5q0 -74 70.5 -128.5t253.5 -123.5q174 -70 269 -158t95 -221q0 -104 -60.5 -185 t-191.5 -129q187 -123 187 -299q0 -154 -117 -248t-326 -94q-205 0 -327.5 107.5t-141.5 288.5h285q16 -188 190 -189q66 0 105 30t39 91q0 74 -69.5 127t-252.5 125q-174 63 -269 152.5t-95 222.5zM383 545q0 -84 57.5 -135.5t159.5 -51.5q100 0 157.5 53.5t57.5 133.5 q0 84 -57.5 136t-159.5 52q-100 0 -157.5 -54t-57.5 -134z" />
<glyph unicode="&#xa8;" horiz-adv-x="774" d="M63 1405q0 55 38 93t92 38q57 0 94 -38t37 -93q0 -53 -37 -91t-94 -38q-53 0 -91.5 38t-38.5 91zM451 1405q0 55 36.5 93t92.5 38q55 0 93 -38t38 -93q0 -53 -38 -91t-93 -38t-92 38t-37 91z" />
<glyph unicode="&#xa9;" horiz-adv-x="1605" d="M86 729q0 -213 91 -380t254 -261t372 -94q211 0 373.5 94t253 261t90.5 380t-90.5 379t-253 259t-373.5 93q-209 0 -372 -93t-254 -260t-91 -378zM188 729q0 188 75 332.5t214 224.5t326 80q186 0 325.5 -80t214 -224t74.5 -333q0 -188 -74.5 -333.5t-214 -226.5 t-325.5 -81t-325.5 81t-214.5 226.5t-75 333.5zM358 727q0 143 58.5 248.5t162 162t232.5 56.5q160 0 277.5 -93t148.5 -255h-242q-23 72 -75 112.5t-121 40.5q-92 0 -153.5 -70.5t-61.5 -201.5t61.5 -201.5t153.5 -70.5q70 0 122 41t74 112h242q-31 -162 -148.5 -255 t-277.5 -93q-129 0 -232.5 56.5t-162 162t-58.5 248.5z" />
<glyph unicode="&#xaa;" horiz-adv-x="946" d="M57 1083q0 172 93.5 272.5t240.5 100.5q188 0 262 -156v146h217v-719h-217v143q-74 -156 -260 -155q-150 0 -243 99t-93 269zM281 1083q0 -90 51 -141t133 -51t135 52t53 142t-53 143.5t-135 53.5q-80 0 -132 -54t-52 -145z" />
<glyph unicode="&#xab;" horiz-adv-x="1064" d="M92 604l182 359h269l-187 -359l187 -358h-269zM524 604l183 359h268l-187 -359l187 -358h-268z" />
<glyph unicode="&#xac;" horiz-adv-x="1556" d="M74 678v219h1366v-498h-289v279h-1077z" />
<glyph unicode="&#xad;" horiz-adv-x="1071" d="M-4 610v240h871v-240h-871z" />
<glyph unicode="&#xae;" horiz-adv-x="1650" d="M86 729q0 215 93 381t262 258t386 92t384 -92t260.5 -258t93.5 -381q0 -213 -93.5 -380t-260.5 -261t-384 -94t-386 94t-262 261t-93 380zM188 729q0 -190 78 -332.5t222.5 -221.5t338.5 -79q193 0 337.5 79t222 222.5t77.5 331.5q0 193 -77.5 336t-221 222t-338.5 79 t-339 -78t-222 -222t-78 -337zM528 303v889h344q162 0 241 -75t79 -189q0 -94 -55.5 -163t-163.5 -91l229 -371h-198l-218 361h-75v-361h-183zM711 782h145q152 0 152 121q0 59 -35 91t-117 32h-145v-244z" />
<glyph unicode="&#xaf;" horiz-adv-x="872" d="M45 1305v194h782v-194h-782z" />
<glyph unicode="&#xb0;" horiz-adv-x="901" d="M53 1079q0 170 108.5 267.5t291.5 97.5q180 0 287.5 -97.5t107.5 -267.5q0 -168 -105.5 -268t-285.5 -100t-292 101t-112 267zM276 1077q0 -100 52.5 -154.5t128.5 -54.5q74 0 121 54.5t47 154.5q0 102 -48.5 156.5t-123.5 54.5q-76 0 -126.5 -54t-50.5 -157z" />
<glyph unicode="&#xb1;" horiz-adv-x="1159" d="M57 193v262h383v288h-383v263h383v288h279v-288h383v-263h-383v-288h383v-262h-1045z" />
<glyph unicode="&#xb2;" horiz-adv-x="765" d="M82 1190q8 119 97 194.5t243 75.5q135 0 205.5 -61.5t70.5 -151.5q0 -80 -57 -141.5t-186 -128.5l-154 -88h395v-168h-604v158l258 178q59 41 90 83t31 91q0 37 -21.5 55.5t-54.5 18.5q-86 0 -96 -115h-217z" />
<glyph unicode="&#xb3;" horiz-adv-x="743" d="M49 956h227q4 -51 28 -70.5t65 -19.5q90 0 90 86q0 47 -29 71t-80 24h-88v81h78q106 0 106 95q0 37 -23.5 60.5t-62.5 23.5q-82 0 -94 -90h-209q6 104 85 173.5t241 69.5q135 0 214 -57t79 -152q0 -129 -148 -159v-7q160 -39 160 -170q0 -92 -80 -147t-221 -55 q-170 0 -248 61.5t-90 181.5z" />
<glyph unicode="&#xb4;" horiz-adv-x="561" d="M45 1221v196l471 246v-221z" />
<glyph unicode="&#xb5;" horiz-adv-x="1429" d="M162 -541v1676h287v-592q0 -147 73.5 -227t196.5 -80q119 0 189.5 76.5t70.5 222.5v600h289v-1135h-289v217q-45 -111 -140.5 -171t-224.5 -60q-104 0 -165 61v-588h-287z" />
<glyph unicode="&#xb6;" horiz-adv-x="1355" d="M43 999q0 119 52 216.5t162 156t273 58.5h664v-1430h-233v1212h-160v-1212h-232v569h-39q-164 0 -273.5 58.5t-161.5 156t-52 215.5z" />
<glyph unicode="&#xb7;" horiz-adv-x="468" d="M78 514v301h311v-301h-311z" />
<glyph unicode="&#xb8;" horiz-adv-x="624" d="M45 -385h234q104 0 104 74q0 31 -25.5 49t-78.5 18h-136v258h174v-120q109 4 186 -49.5t77 -166.5q0 -111 -78 -165t-193 -54h-264v156z" />
<glyph unicode="&#xb9;" horiz-adv-x="477" d="M57 1272v170h344v-721h-219v551h-125z" />
<glyph unicode="&#xba;" horiz-adv-x="915" d="M57 1081q0 106 50.5 191.5t141.5 132.5t210 47t210 -47t141 -132t50 -192q0 -106 -50 -192t-141 -134t-210 -48t-210 48t-141.5 134t-50.5 192zM279 1081q0 -96 51 -149t129 -53t128 53t50 149t-50 148.5t-128 52.5q-80 0 -130 -52t-50 -149z" />
<glyph unicode="&#xbb;" horiz-adv-x="1064" d="M102 246l189 358l-189 359h271l180 -359l-180 -358h-271zM535 246l188 358l-188 359h270l180 -359l-180 -358h-270z" />
<glyph unicode="&#xbc;" horiz-adv-x="1499" d="M104 1272v170h345v-721h-220v551h-125zM182 0l762 1446h281l-760 -1446h-283zM741 133v119l320 471h291v-465h88v-125h-88v-133h-219v133h-392zM950 264h193v297z" />
<glyph unicode="&#xbd;" horiz-adv-x="1626" d="M106 1272v170h345v-721h-220v551h-125zM168 0l774 1450h283l-774 -1450h-283zM879 467q8 119 97 194.5t243 75.5q135 0 205.5 -61.5t70.5 -151.5q0 -80 -57.5 -141t-186.5 -129l-153 -88h395v-168h-604v158l258 178q59 41 90 83t31 91q0 37 -21.5 55.5t-54.5 18.5 q-86 0 -96 -115h-217z" />
<glyph unicode="&#xbe;" horiz-adv-x="1693" d="M129 956h227q4 -51 28 -70.5t65 -19.5q90 0 90 86q0 47 -29 71t-80 24h-88v81h78q106 0 106 95q0 37 -23.5 60.5t-62.5 23.5q-82 0 -94 -90h-209q6 104 85 173.5t241 69.5q135 0 214 -57t79 -152q0 -129 -148 -159v-7q160 -39 160 -170q0 -92 -80 -147t-221 -55 q-170 0 -248 61.5t-90 181.5zM408 0l739 1450h283l-740 -1450h-282zM946 133v119l293 471h315v-465h88v-125h-88v-133h-217v133h-391zM1155 258h193v328z" />
<glyph unicode="&#xbf;" horiz-adv-x="1040" d="M129 37q0 205 130 313.5t349 112.5v207h272v-395h-117q-166 0 -258 -50.5t-92 -185.5q0 -90 51.5 -140t137.5 -50q94 0 149 54t55 140h273q4 -123 -53.5 -220t-169 -153.5t-265.5 -56.5q-208 0 -335 110.5t-127 313.5zM585 844v301h312v-301h-312z" />
<glyph unicode="&#xc0;" horiz-adv-x="1441" d="M25 0l532 1430h330l530 -1430h-305l-100 291h-580l-102 -291h-305zM403 1753v221l471 -246v-196zM508 510h426l-213 610z" />
<glyph unicode="&#xc1;" horiz-adv-x="1441" d="M25 0l532 1430h330l530 -1430h-305l-100 291h-580l-102 -291h-305zM508 510h426l-213 610zM559 1532v196l471 246v-221z" />
<glyph unicode="&#xc2;" horiz-adv-x="1441" d="M25 0l532 1430h330l530 -1430h-305l-100 291h-580l-102 -291h-305zM416 1546v195l305 169l303 -169v-195l-303 174zM508 510h426l-213 610z" />
<glyph unicode="&#xc3;" horiz-adv-x="1441" d="M25 0l532 1430h330l530 -1430h-305l-100 291h-580l-102 -291h-305zM344 1558q43 270 248 271q43 0 75.5 -14.5t77.5 -41.5q37 -23 60.5 -33t50.5 -10q37 0 60.5 24.5t29.5 72.5h149q-20 -135 -84.5 -202t-164.5 -67q-43 0 -77 14.5t-81 41.5q-37 20 -58.5 30t-48.5 10 q-76 0 -90 -96h-147zM508 510h426l-213 610z" />
<glyph unicode="&#xc4;" horiz-adv-x="1441" d="M25 0l532 1430h330l530 -1430h-305l-100 291h-580l-102 -291h-305zM397 1716q0 55 38 93t92 38q57 0 94 -38t37 -93q0 -53 -37 -91t-94 -38q-53 0 -91.5 38t-38.5 91zM508 510h426l-213 610zM785 1716q0 55 36.5 93t92.5 38q55 0 93 -38t38 -93q0 -53 -38 -91t-93 -38 t-92 38t-37 91z" />
<glyph unicode="&#xc5;" horiz-adv-x="1441" d="M25 0l532 1430h330l530 -1430h-305l-100 291h-580l-102 -291h-305zM483 1779q0 106 67.5 171t168.5 65q100 0 167.5 -63.5t67.5 -172.5t-67.5 -172t-167.5 -63t-168 64.5t-68 170.5zM508 510h426l-213 610zM606 1779q0 -53 31.5 -84.5t81.5 -31.5q49 0 81.5 31.5 t32.5 84.5t-32.5 85t-81.5 32q-50 0 -81.5 -31.5t-31.5 -85.5z" />
<glyph unicode="&#xc6;" horiz-adv-x="1896" d="M8 0l772 1446h1035v-229h-562v-371h500v-221h-500v-394h562v-231h-850v279h-494l-147 -279h-316zM588 498h377v708z" />
<glyph unicode="&#xc7;" horiz-adv-x="1554" d="M86 723q0 215 87 383t244.5 261t366.5 93q271 0 449 -139t235 -379h-303q-47 117 -146 184.5t-239 67.5q-115 0 -207 -57.5t-143 -164t-51 -249.5q0 -141 51 -247.5t143.5 -164t206.5 -57.5q139 0 238.5 67.5t146.5 184.5h303q-57 -240 -235 -379t-449 -139 q-207 0 -365.5 93t-245.5 261t-87 381zM600 -385h234q104 0 104 74q0 31 -25.5 49t-78.5 18h-136v258h174v-120q109 4 186 -49.5t77 -166.5q0 -111 -78 -165t-193 -54h-264v156z" />
<glyph unicode="&#xc8;" horiz-adv-x="1075" d="M131 0v1446h862v-229h-573v-375h512v-221h-512v-390h573v-231h-862zM246 1753v221l471 -246v-196z" />
<glyph unicode="&#xc9;" horiz-adv-x="1075" d="M131 0v1446h862v-229h-573v-375h512v-221h-512v-390h573v-231h-862zM401 1532v196l471 246v-221z" />
<glyph unicode="&#xca;" horiz-adv-x="1075" d="M131 0v1446h862v-229h-573v-375h512v-221h-512v-390h573v-231h-862zM258 1546v195l305 169l303 -169v-195l-303 174z" />
<glyph unicode="&#xcb;" horiz-adv-x="1075" d="M131 0v1446h862v-229h-573v-375h512v-221h-512v-390h573v-231h-862zM239 1716q0 55 38 93t92 38q57 0 94 -38t37 -93q0 -53 -37 -91t-94 -38q-53 0 -91.5 38t-38.5 91zM627 1716q0 55 36.5 93t92.5 38q55 0 93 -38t38 -93q0 -53 -38 -91t-93 -38t-92 38t-37 91z" />
<glyph unicode="&#xcc;" horiz-adv-x="550" d="M-41 1753v221l471 -246v-196zM131 0v1446h289v-1446h-289z" />
<glyph unicode="&#xcd;" horiz-adv-x="550" d="M115 1532v196l471 246v-221zM131 0v1446h289v-1446h-289z" />
<glyph unicode="&#xce;" horiz-adv-x="550" d="M-29 1546v195l305 169l303 -169v-195l-303 174zM131 0v1446h289v-1446h-289z" />
<glyph unicode="&#xcf;" horiz-adv-x="550" d="M-48 1716q0 55 38 93t92 38q57 0 94 -38t37 -93q0 -53 -37 -91t-94 -38q-53 0 -91.5 38t-38.5 91zM131 0v1446h289v-1446h-289zM340 1716q0 55 36.5 93t92.5 38q55 0 93 -38t38 -93q0 -53 -38 -91t-93 -38t-92 38t-37 91z" />
<glyph unicode="&#xd0;" horiz-adv-x="1521" d="M8 610v232h156v604h514q235 0 406 -89t261.5 -252t90.5 -380q0 -215 -90.5 -379t-261.5 -255t-406 -91h-514v610h-156zM453 258h200q234 0 362 123t128 344q0 223 -128 346t-362 123h-200v-352h350v-232h-350v-352z" />
<glyph unicode="&#xd1;" horiz-adv-x="1486" d="M131 0v1446h289l647 -991v991h289v-1446h-289l-647 983v-983h-289zM367 1558q43 270 248 271q43 0 75.5 -14.5t77.5 -41.5q37 -23 60.5 -33t50.5 -10q37 0 60.5 24.5t29.5 72.5h149q-20 -135 -84.5 -202t-164.5 -67q-43 0 -77 14.5t-81 41.5q-37 20 -58.5 30t-48.5 10 q-76 0 -90 -96h-147z" />
<glyph unicode="&#xd2;" horiz-adv-x="1617" d="M86 727q0 213 95 382t260 263t368 94t367.5 -94t260 -263t95.5 -382t-95.5 -383t-260 -264t-367.5 -94t-368 94t-260 264t-95 383zM381 727q0 -143 54 -250.5t150.5 -165t223.5 -57.5t223 57.5t150.5 165t54.5 250.5t-54.5 250.5t-150.5 165t-223 57.5t-223.5 -57.5 t-150.5 -165t-54 -250.5zM491 1753v221l471 -246v-196z" />
<glyph unicode="&#xd3;" horiz-adv-x="1617" d="M86 727q0 213 95 382t260 263t368 94t367.5 -94t260 -263t95.5 -382t-95.5 -383t-260 -264t-367.5 -94t-368 94t-260 264t-95 383zM381 727q0 -143 54 -250.5t150.5 -165t223.5 -57.5t223 57.5t150.5 165t54.5 250.5t-54.5 250.5t-150.5 165t-223 57.5t-223.5 -57.5 t-150.5 -165t-54 -250.5zM647 1532v196l471 246v-221z" />
<glyph unicode="&#xd4;" horiz-adv-x="1617" d="M86 727q0 213 95 382t260 263t368 94t367.5 -94t260 -263t95.5 -382t-95.5 -383t-260 -264t-367.5 -94t-368 94t-260 264t-95 383zM381 727q0 -143 54 -250.5t150.5 -165t223.5 -57.5t223 57.5t150.5 165t54.5 250.5t-54.5 250.5t-150.5 165t-223 57.5t-223.5 -57.5 t-150.5 -165t-54 -250.5zM506 1546v195l305 169l303 -169v-195l-303 174z" />
<glyph unicode="&#xd5;" horiz-adv-x="1617" d="M86 727q0 213 95 382t260 263t368 94t367.5 -94t260 -263t95.5 -382t-95.5 -383t-260 -264t-367.5 -94t-368 94t-260 264t-95 383zM381 727q0 -143 54 -250.5t150.5 -165t223.5 -57.5t223 57.5t150.5 165t54.5 250.5t-54.5 250.5t-150.5 165t-223 57.5t-223.5 -57.5 t-150.5 -165t-54 -250.5zM432 1558q43 270 248 271q43 0 75.5 -14.5t77.5 -41.5q37 -23 60.5 -33t50.5 -10q37 0 60.5 24.5t29.5 72.5h149q-20 -135 -84.5 -202t-164.5 -67q-43 0 -77 14.5t-81 41.5q-37 20 -58.5 30t-48.5 10q-76 0 -90 -96h-147z" />
<glyph unicode="&#xd6;" horiz-adv-x="1617" d="M86 727q0 213 95 382t260 263t368 94t367.5 -94t260 -263t95.5 -382t-95.5 -383t-260 -264t-367.5 -94t-368 94t-260 264t-95 383zM381 727q0 -143 54 -250.5t150.5 -165t223.5 -57.5t223 57.5t150.5 165t54.5 250.5t-54.5 250.5t-150.5 165t-223 57.5t-223.5 -57.5 t-150.5 -165t-54 -250.5zM485 1716q0 55 38 93t92 38q57 0 94 -38t37 -93q0 -53 -37 -91t-94 -38q-53 0 -91.5 38t-38.5 91zM873 1716q0 55 36.5 93t92.5 38q55 0 93 -38t38 -93q0 -53 -38 -91t-93 -38t-92 38t-37 91z" />
<glyph unicode="&#xd7;" horiz-adv-x="1097" d="M57 434l301 303l-297 295l193 191l295 -295l291 293l186 -185l-293 -293l307 -307l-192 -188l-305 303l-299 -301z" />
<glyph unicode="&#xd8;" horiz-adv-x="1617" d="M72 2l196 217q-88 98 -136 228.5t-48 279.5q0 213 95 382t260 263t368 94q129 0 243.5 -38.5t209.5 -112.5l122 137h162l-196 -219q88 -98 135 -227t47 -279q0 -213 -95.5 -383t-260 -264t-367.5 -94q-127 0 -241.5 38.5t-209.5 110.5l-120 -133h-164zM379 727 q0 -176 80 -297l616 682q-111 88 -268 88q-127 0 -223.5 -57.5t-150.5 -165t-54 -250.5zM541 340q111 -86 266 -86q127 0 223 57.5t150.5 165t54.5 250.5q0 174 -80 295z" />
<glyph unicode="&#xd9;" horiz-adv-x="1398" d="M123 598v848h287v-848q0 -170 74.5 -255t215.5 -85q139 0 214 85t75 255v848h287v-848q0 -201 -75 -339t-207 -205.5t-300 -67.5q-260 0 -415.5 155.5t-155.5 456.5zM381 1753v221l471 -246v-196z" />
<glyph unicode="&#xda;" horiz-adv-x="1398" d="M123 598v848h287v-848q0 -170 74.5 -255t215.5 -85q139 0 214 85t75 255v848h287v-848q0 -201 -75 -339t-207 -205.5t-300 -67.5q-260 0 -415.5 155.5t-155.5 456.5zM537 1532v196l471 246v-221z" />
<glyph unicode="&#xdb;" horiz-adv-x="1398" d="M123 598v848h287v-848q0 -170 74.5 -255t215.5 -85q139 0 214 85t75 255v848h287v-848q0 -201 -75 -339t-207 -205.5t-300 -67.5q-260 0 -415.5 155.5t-155.5 456.5zM395 1546v195l305 169l303 -169v-195l-303 174z" />
<glyph unicode="&#xdc;" horiz-adv-x="1398" d="M123 598v848h287v-848q0 -170 74.5 -255t215.5 -85q139 0 214 85t75 255v848h287v-848q0 -201 -75 -339t-207 -205.5t-300 -67.5q-260 0 -415.5 155.5t-155.5 456.5zM376 1716q0 55 38 93t92 38q57 0 94 -38t37 -93q0 -53 -37 -91t-94 -38q-53 0 -91.5 38t-38.5 91z M764 1716q0 55 36.5 93t92.5 38q55 0 93 -38t38 -93q0 -53 -38 -91t-93 -38t-92 38t-37 91z" />
<glyph unicode="&#xdd;" horiz-adv-x="1320" d="M25 1446h331l308 -633l307 633h325l-489 -940v-506h-291v506zM500 1532v196l471 246v-221z" />
<glyph unicode="&#xde;" horiz-adv-x="1230" d="M131 0v1446h287v-277h239q254 0 385.5 -119.5t131.5 -324.5q0 -201 -134.5 -320.5t-382.5 -119.5h-237v-285h-289zM420 504h207q254 0 254 221q0 109 -59.5 165t-194.5 56h-207v-442z" />
<glyph unicode="&#xdf;" horiz-adv-x="1431" d="M131 0v1008q0 264 132 396t384 132q135 0 234.5 -46t151.5 -124t52 -174q0 -92 -45 -159.5t-147 -117.5l192 -114q162 -94 231.5 -194.5t69.5 -246.5q0 -106 -51 -191t-144 -135t-216 -50q-209 0 -319.5 110.5t-112.5 306.5h237q4 -78 47 -123t121 -45t118 44.5t40 105.5 q0 66 -34 113t-124 102l-311 182v117l51 29q53 31 78 69.5t25 91.5q0 82 -48.5 134.5t-130.5 52.5q-88 0 -141 -55.5t-53 -151.5l2 -1067h-289z" />
<glyph unicode="&#xe0;" d="M74 567q0 178 64.5 310.5t179 202t257.5 69.5q144 0 246.5 -67.5t145.5 -182.5v236h286v-1135h-286v238q-43 -115 -145.5 -183.5t-246.5 -68.5q-143 0 -257.5 69.5t-179 201.5t-64.5 310zM348 1442v221l471 -246v-196zM367 567q0 -154 81.5 -240.5t217.5 -86.5 q131 0 216 89t85 238q0 152 -85 241t-216 89q-136 0 -217.5 -88t-81.5 -242z" />
<glyph unicode="&#xe1;" d="M74 567q0 178 64.5 310.5t179 202t257.5 69.5q144 0 246.5 -67.5t145.5 -182.5v236h286v-1135h-286v238q-43 -115 -145.5 -183.5t-246.5 -68.5q-143 0 -257.5 69.5t-179 201.5t-64.5 310zM367 567q0 -154 81.5 -240.5t217.5 -86.5q131 0 216 89t85 238q0 152 -85 241 t-216 89q-136 0 -217.5 -88t-81.5 -242zM504 1221v196l471 246v-221z" />
<glyph unicode="&#xe2;" d="M74 567q0 178 64.5 310.5t179 202t257.5 69.5q144 0 246.5 -67.5t145.5 -182.5v236h286v-1135h-286v238q-43 -115 -145.5 -183.5t-246.5 -68.5q-143 0 -257.5 69.5t-179 201.5t-64.5 310zM360 1235v195l305 169l303 -169v-195l-303 174zM367 567q0 -154 81.5 -240.5 t217.5 -86.5q131 0 216 89t85 238q0 152 -85 241t-216 89q-136 0 -217.5 -88t-81.5 -242z" />
<glyph unicode="&#xe3;" d="M74 567q0 178 64.5 310.5t179 202t257.5 69.5q144 0 246.5 -67.5t145.5 -182.5v236h286v-1135h-286v238q-43 -115 -145.5 -183.5t-246.5 -68.5q-143 0 -257.5 69.5t-179 201.5t-64.5 310zM289 1247q43 270 248 271q43 0 75.5 -14.5t77.5 -41.5q37 -23 60.5 -33t50.5 -10 q37 0 60.5 24.5t29.5 72.5h149q-20 -135 -84.5 -202t-164.5 -67q-43 0 -77 14.5t-81 41.5q-37 20 -58.5 30t-48.5 10q-76 0 -90 -96h-147zM367 567q0 -154 81.5 -240.5t217.5 -86.5q131 0 216 89t85 238q0 152 -85 241t-216 89q-136 0 -217.5 -88t-81.5 -242z" />
<glyph unicode="&#xe4;" d="M74 567q0 178 64.5 310.5t179 202t257.5 69.5q144 0 246.5 -67.5t145.5 -182.5v236h286v-1135h-286v238q-43 -115 -145.5 -183.5t-246.5 -68.5q-143 0 -257.5 69.5t-179 201.5t-64.5 310zM342 1405q0 55 38 93t92 38q57 0 94 -38t37 -93q0 -53 -37 -91t-94 -38 q-53 0 -91.5 38t-38.5 91zM367 567q0 -154 81.5 -240.5t217.5 -86.5q131 0 216 89t85 238q0 152 -85 241t-216 89q-136 0 -217.5 -88t-81.5 -242zM730 1405q0 55 36.5 93t92.5 38q55 0 93 -38t38 -93q0 -53 -38 -91t-93 -38t-92 38t-37 91z" />
<glyph unicode="&#xe5;" d="M74 567q0 178 64.5 310.5t179 202t257.5 69.5q144 0 246.5 -67.5t145.5 -182.5v236h286v-1135h-286v238q-43 -115 -145.5 -183.5t-246.5 -68.5q-143 0 -257.5 69.5t-179 201.5t-64.5 310zM367 567q0 -154 81.5 -240.5t217.5 -86.5q131 0 216 89t85 238q0 152 -85 241 t-216 89q-136 0 -217.5 -88t-81.5 -242zM428 1468q0 106 67.5 171t168.5 65q100 0 167.5 -63.5t67.5 -172.5t-67.5 -172t-167.5 -63t-168 64.5t-68 170.5zM551 1468q0 -53 31.5 -84.5t81.5 -31.5q49 0 81.5 31.5t32.5 84.5t-32.5 85t-81.5 32q-50 0 -81.5 -31.5t-31.5 -85.5 z" />
<glyph unicode="&#xe6;" horiz-adv-x="2224" d="M74 567q0 178 64.5 310.5t179 202t257.5 69.5t246 -67.5t146 -182.5v236h286v-238q43 121 149.5 186.5t252.5 65.5q152 0 263.5 -69.5t171.5 -191.5t60 -278q0 -55 -8 -98h-878q10 -152 91 -224.5t204 -72.5q109 0 180 49t92 135h305q-33 -182 -162 -297.5t-319 -115.5 q-145 0 -252 65.5t-150 186.5v-238h-286v238q-43 -115 -145.5 -183.5t-246.5 -68.5q-143 0 -257.5 69.5t-179 201.5t-64.5 310zM367 567q0 -154 81.5 -240.5t217.5 -86.5q131 0 216 89t85 238q0 152 -85 241t-216 89q-135 0 -217 -88t-82 -242zM1264 639h596q6 139 -80 211 t-213 72q-121 0 -206 -70t-97 -213z" />
<glyph unicode="&#xe7;" horiz-adv-x="1263" d="M74 567q0 178 71.5 310.5t200.5 202t295 69.5q219 0 365.5 -119t183.5 -323h-305q-18 90 -84 142t-166 52q-115 0 -191.5 -85t-76.5 -249t76.5 -249t191.5 -85q100 0 165.5 52.5t84.5 142.5h305q-37 -205 -183.5 -323.5t-365.5 -118.5q-166 0 -295 70.5t-200.5 201.5 t-71.5 309zM405 -385h234q104 0 104 74q0 31 -25.5 49t-78.5 18h-136v258h174v-120q109 4 186 -49.5t77 -166.5q0 -111 -78 -165t-193 -54h-264v156z" />
<glyph unicode="&#xe8;" horiz-adv-x="1271" d="M74 567q0 178 71.5 310.5t200.5 202t295 69.5q168 0 294 -69.5t194.5 -191.5t68.5 -278q0 -43 -10 -98h-832q6 -152 82 -223.5t189 -71.5q100 0 166.5 49t85.5 133h305q-23 -119 -96.5 -213t-189.5 -147t-257 -53q-166 0 -295 70.5t-200.5 201.5t-71.5 309zM319 1442v221 l471 -246v-196zM356 639h551q6 139 -72.5 211t-193.5 72q-117 0 -196.5 -72t-88.5 -211z" />
<glyph unicode="&#xe9;" horiz-adv-x="1271" d="M74 567q0 178 71.5 310.5t200.5 202t295 69.5q168 0 294 -69.5t194.5 -191.5t68.5 -278q0 -43 -10 -98h-832q6 -152 82 -223.5t189 -71.5q100 0 166.5 49t85.5 133h305q-23 -119 -96.5 -213t-189.5 -147t-257 -53q-166 0 -295 70.5t-200.5 201.5t-71.5 309zM356 639h551 q6 139 -72.5 211t-193.5 72q-117 0 -196.5 -72t-88.5 -211zM475 1221v196l471 246v-221z" />
<glyph unicode="&#xea;" horiz-adv-x="1271" d="M74 567q0 178 71.5 310.5t200.5 202t295 69.5q168 0 294 -69.5t194.5 -191.5t68.5 -278q0 -43 -10 -98h-832q6 -152 82 -223.5t189 -71.5q100 0 166.5 49t85.5 133h305q-23 -119 -96.5 -213t-189.5 -147t-257 -53q-166 0 -295 70.5t-200.5 201.5t-71.5 309zM332 1235v195 l305 169l303 -169v-195l-303 174zM356 639h551q6 139 -72.5 211t-193.5 72q-117 0 -196.5 -72t-88.5 -211z" />
<glyph unicode="&#xeb;" horiz-adv-x="1271" d="M74 567q0 178 71.5 310.5t200.5 202t295 69.5q168 0 294 -69.5t194.5 -191.5t68.5 -278q0 -43 -10 -98h-832q6 -152 82 -223.5t189 -71.5q100 0 166.5 49t85.5 133h305q-23 -119 -96.5 -213t-189.5 -147t-257 -53q-166 0 -295 70.5t-200.5 201.5t-71.5 309zM313 1405 q0 55 38 93t92 38q57 0 94 -38t37 -93q0 -53 -37 -91t-94 -38q-53 0 -91.5 38t-38.5 91zM356 639h551q6 139 -72.5 211t-193.5 72q-117 0 -196.5 -72t-88.5 -211zM701 1405q0 55 36.5 93t92.5 38q55 0 93 -38t38 -93q0 -53 -38 -91t-93 -38t-92 38t-37 91z" />
<glyph unicode="&#xec;" horiz-adv-x="612" d="M-10 1442v221l471 -246v-196zM162 0v1135h289v-1135h-289z" />
<glyph unicode="&#xed;" horiz-adv-x="612" d="M145 1221v196l471 246v-221zM162 0v1135h289v-1135h-289z" />
<glyph unicode="&#xee;" horiz-adv-x="612" d="M2 1235v195l305 169l303 -169v-195l-303 174zM162 0v1135h289v-1135h-289z" />
<glyph unicode="&#xef;" horiz-adv-x="612" d="M-17 1405q0 55 38 93t92 38q57 0 94 -38t37 -93q0 -53 -37 -91t-94 -38q-53 0 -91.5 38t-38.5 91zM162 0v1135h289v-1135h-289zM371 1405q0 55 36.5 93t92.5 38q55 0 93 -38t38 -93q0 -53 -38 -91t-93 -38t-92 38t-37 91z" />
<glyph unicode="&#xf0;" horiz-adv-x="1318" d="M74 584q0 170 71.5 299t199.5 198.5t290 69.5q94 0 174 -44t125 -132q-51 182 -160 328l-244 -78v102l179 55q-66 72 -142 134h256q27 -23 76 -72l207 65v-102l-135 -43q133 -158 203.5 -341t70.5 -382q0 -209 -75.5 -356.5t-205.5 -222t-296 -74.5q-168 0 -303.5 73.5 t-213 209t-77.5 313.5zM369 582q0 -166 86 -255t213 -89q123 0 202.5 85t79.5 244q0 109 -40 184.5t-105.5 112.5t-140.5 37q-127 0 -211 -82t-84 -237z" />
<glyph unicode="&#xf1;" horiz-adv-x="1359" d="M131 0v1135h289v-228q45 115 148.5 179.5t238.5 64.5q197 0 313.5 -129t116.5 -363v-659h-287v627q0 135 -69.5 209.5t-190.5 74.5q-123 0 -196.5 -79.5t-73.5 -229.5v-602h-289zM307 1247q43 270 248 271q43 0 75.5 -14.5t77.5 -41.5q37 -23 60.5 -33t50.5 -10 q37 0 60.5 24.5t29.5 72.5h149q-20 -135 -84.5 -202t-164.5 -67q-43 0 -77 14.5t-81 41.5q-37 20 -58.5 30t-48.5 10q-76 0 -90 -96h-147z" />
<glyph unicode="&#xf2;" horiz-adv-x="1310" d="M74 567q0 178 75.5 310.5t207.5 202t298 69.5t298 -69.5t208 -202t76 -310.5t-76 -309t-208 -201.5t-298 -70.5t-298 70.5t-207.5 201.5t-75.5 309zM338 1442v221l471 -246v-196zM367 567q0 -162 84 -246.5t204 -84.5q121 0 205 85t84 246q0 162 -84 247t-205 85 q-120 0 -204 -85t-84 -247z" />
<glyph unicode="&#xf3;" horiz-adv-x="1310" d="M74 567q0 178 75.5 310.5t207.5 202t298 69.5t298 -69.5t208 -202t76 -310.5t-76 -309t-208 -201.5t-298 -70.5t-298 70.5t-207.5 201.5t-75.5 309zM367 567q0 -162 84 -246.5t204 -84.5q121 0 205 85t84 246q0 162 -84 247t-205 85q-120 0 -204 -85t-84 -247zM494 1221 v196l471 246v-221z" />
<glyph unicode="&#xf4;" horiz-adv-x="1310" d="M74 567q0 178 75.5 310.5t207.5 202t298 69.5t298 -69.5t208 -202t76 -310.5t-76 -309t-208 -201.5t-298 -70.5t-298 70.5t-207.5 201.5t-75.5 309zM352 1235v195l305 169l303 -169v-195l-303 174zM367 567q0 -162 84 -246.5t204 -84.5q121 0 205 85t84 246 q0 162 -84 247t-205 85q-120 0 -204 -85t-84 -247z" />
<glyph unicode="&#xf5;" horiz-adv-x="1310" d="M74 567q0 178 75.5 310.5t207.5 202t298 69.5t298 -69.5t208 -202t76 -310.5t-76 -309t-208 -201.5t-298 -70.5t-298 70.5t-207.5 201.5t-75.5 309zM281 1247q43 270 248 271q43 0 75.5 -14.5t77.5 -41.5q37 -23 60.5 -33t50.5 -10q37 0 60.5 24.5t29.5 72.5h149 q-20 -135 -84.5 -202t-164.5 -67q-43 0 -77 14.5t-81 41.5q-37 20 -58.5 30t-48.5 10q-76 0 -90 -96h-147zM367 567q0 -162 84 -246.5t204 -84.5q121 0 205 85t84 246q0 162 -84 247t-205 85q-120 0 -204 -85t-84 -247z" />
<glyph unicode="&#xf6;" horiz-adv-x="1310" d="M74 567q0 178 75.5 310.5t207.5 202t298 69.5t298 -69.5t208 -202t76 -310.5t-76 -309t-208 -201.5t-298 -70.5t-298 70.5t-207.5 201.5t-75.5 309zM333 1405q0 55 38 93t92 38q57 0 94 -38t37 -93q0 -53 -37 -91t-94 -38q-53 0 -91.5 38t-38.5 91zM367 567 q0 -162 84 -246.5t204 -84.5q121 0 205 85t84 246q0 162 -84 247t-205 85q-120 0 -204 -85t-84 -247zM721 1405q0 55 36.5 93t92.5 38q55 0 93 -38t38 -93q0 -53 -38 -91t-93 -38t-92 38t-37 91z" />
<glyph unicode="&#xf7;" horiz-adv-x="1159" d="M57 598v262h1045v-262h-1045zM422 119v301h311v-301h-311zM422 1042v301h311v-301h-311z" />
<glyph unicode="&#xf8;" horiz-adv-x="1292" d="M57 0l150 164q-70 76 -107 178t-37 225q0 178 76 310.5t208 202t298 69.5q209 0 363 -109l86 95h145l-154 -166q68 -74 105 -176.5t37 -225.5q0 -178 -76 -309t-208 -201.5t-298 -70.5q-213 0 -358 108l-86 -94h-144zM356 567q0 -110 43 -192l424 465q-72 59 -178 59 q-121 0 -205 -85t-84 -247zM469 293q76 -57 176 -57q121 0 205 85t84 246q0 107 -41 189z" />
<glyph unicode="&#xf9;" horiz-adv-x="1347" d="M111 475v660h286v-627q0 -135 70 -210t188 -75q125 0 199 80t74 229v603h289v-1135h-289v229q-45 -115 -148.5 -179t-238.5 -64q-197 0 -313.5 129t-116.5 360zM346 1442v221l471 -246v-196z" />
<glyph unicode="&#xfa;" horiz-adv-x="1347" d="M111 475v660h286v-627q0 -135 70 -210t188 -75q125 0 199 80t74 229v603h289v-1135h-289v229q-45 -115 -148.5 -179t-238.5 -64q-197 0 -313.5 129t-116.5 360zM502 1221v196l471 246v-221z" />
<glyph unicode="&#xfb;" horiz-adv-x="1347" d="M111 475v660h286v-627q0 -135 70 -210t188 -75q125 0 199 80t74 229v603h289v-1135h-289v229q-45 -115 -148.5 -179t-238.5 -64q-197 0 -313.5 129t-116.5 360zM358 1235v195l305 169l303 -169v-195l-303 174z" />
<glyph unicode="&#xfc;" horiz-adv-x="1347" d="M111 475v660h286v-627q0 -135 70 -210t188 -75q125 0 199 80t74 229v603h289v-1135h-289v229q-45 -115 -148.5 -179t-238.5 -64q-197 0 -313.5 129t-116.5 360zM339 1405q0 55 38 93t92 38q57 0 94 -38t37 -93q0 -53 -37 -91t-94 -38q-53 0 -91.5 38t-38.5 91zM727 1405 q0 55 36.5 93t92.5 38q55 0 93 -38t38 -93q0 -53 -38 -91t-93 -38t-92 38t-37 91z" />
<glyph unicode="&#xfd;" horiz-adv-x="1243" d="M4 1135h322l309 -770l287 770h317l-694 -1676h-320l256 574zM461 1221v196l471 246v-221z" />
<glyph unicode="&#xfe;" d="M131 -541v2057h289v-584q51 102 145 158.5t226 56.5q145 0 264 -74t187.5 -206t68.5 -304t-68.5 -302t-187.5 -201.5t-264 -71.5q-131 0 -224.5 60.5t-146.5 170.5v-760h-289zM420 567q0 -104 41 -178t110.5 -111.5t149.5 -37.5q129 0 213 83t84 240q0 158 -85 245 t-212 87q-82 0 -150.5 -38t-109.5 -111.5t-41 -178.5z" />
<glyph unicode="&#xff;" horiz-adv-x="1243" d="M4 1135h322l309 -770l287 770h317l-694 -1676h-320l256 574zM299 1405q0 55 38 93t92 38q57 0 94 -38t37 -93q0 -53 -37 -91t-94 -38q-53 0 -91.5 38t-38.5 91zM687 1405q0 55 36.5 93t92.5 38q55 0 93 -38t38 -93q0 -53 -38 -91t-93 -38t-92 38t-37 91z" />
<glyph unicode="&#x152;" horiz-adv-x="2195" d="M86 723q0 215 90 384t251 264t361 95q152 0 277 -70.5t186 -193.5v244h860v-229h-571v-375h510v-221h-510v-390h571v-231h-860v242q-61 -121 -186 -190.5t-277 -71.5q-203 0 -362.5 94t-249.5 264t-90 385zM381 723q0 -145 53 -253t150.5 -166t224.5 -58t224 58 t150.5 166t53.5 253q0 143 -54.5 251.5t-150.5 167t-223 58.5t-223.5 -58.5t-150.5 -167t-54 -251.5z" />
<glyph unicode="&#x153;" horiz-adv-x="2185" d="M74 567q0 178 75.5 310.5t207.5 202t298 69.5q143 0 258 -59.5t181 -165.5q63 109 174.5 167t255.5 58q168 0 294 -69.5t194.5 -191.5t68.5 -278q0 -43 -10 -98h-834q8 -152 84 -223.5t188 -71.5q98 0 166 50t84 132h305q-23 -119 -95.5 -213t-188 -147t-256.5 -53 q-143 0 -255 58t-175 167q-66 -106 -180.5 -165.5t-258.5 -59.5q-166 0 -298 70.5t-207.5 201.5t-75.5 309zM367 567q0 -162 84 -246.5t204 -84.5q121 0 205 85t84 246q0 162 -84 247t-205 85t-204.5 -85t-83.5 -247zM1237 639h551q6 139 -72 211t-192 72q-119 0 -199 -72 t-88 -211z" />
<glyph unicode="&#x178;" horiz-adv-x="1320" d="M25 1446h331l308 -633l307 633h325l-489 -940v-506h-291v506zM337 1716q0 55 38 93t92 38q57 0 94 -38t37 -93q0 -53 -37 -91t-94 -38q-53 0 -91.5 38t-38.5 91zM725 1716q0 55 36.5 93t92.5 38q55 0 93 -38t38 -93q0 -53 -38 -91t-93 -38t-92 38t-37 91z" />
<glyph unicode="&#x2c6;" horiz-adv-x="698" d="M45 1235v195l305 169l303 -169v-195l-303 174z" />
<glyph unicode="&#x2dc;" horiz-adv-x="817" d="M33 1247q43 270 248 271q43 0 75.5 -14.5t77.5 -41.5q37 -23 60.5 -33t50.5 -10q37 0 60.5 24.5t29.5 72.5h149q-20 -135 -84.5 -202t-164.5 -67q-43 0 -77 14.5t-81 41.5q-37 20 -58.5 30t-48.5 10q-76 0 -90 -96h-147z" />
<glyph unicode="&#x2000;" horiz-adv-x="1015" />
<glyph unicode="&#x2001;" horiz-adv-x="2030" />
<glyph unicode="&#x2002;" horiz-adv-x="1015" />
<glyph unicode="&#x2003;" horiz-adv-x="2030" />
<glyph unicode="&#x2004;" horiz-adv-x="676" />
<glyph unicode="&#x2005;" horiz-adv-x="507" />
<glyph unicode="&#x2006;" horiz-adv-x="338" />
<glyph unicode="&#x2007;" horiz-adv-x="338" />
<glyph unicode="&#x2008;" horiz-adv-x="253" />
<glyph unicode="&#x2009;" horiz-adv-x="406" />
<glyph unicode="&#x200a;" horiz-adv-x="112" />
<glyph unicode="&#x2010;" horiz-adv-x="1071" d="M-4 610v240h871v-240h-871z" />
<glyph unicode="&#x2011;" horiz-adv-x="1071" d="M-4 610v240h871v-240h-871z" />
<glyph unicode="&#x2012;" horiz-adv-x="1071" d="M-4 610v240h871v-240h-871z" />
<glyph unicode="&#x2013;" horiz-adv-x="1314" d="M100 610v240h1114v-240h-1114z" />
<glyph unicode="&#x2014;" horiz-adv-x="1775" d="M100 610v240h1575v-240h-1575z" />
<glyph unicode="&#x2018;" horiz-adv-x="444" d="M86 1403q0 131 65.5 205.5t192.5 74.5v-112q-53 0 -78.5 -32t-25.5 -97v-37h118v-225h-237q-35 117 -35 223z" />
<glyph unicode="&#x2019;" horiz-adv-x="444" d="M88 1460v223h238q32 -108 32 -221q0 -133 -64.5 -207.5t-191.5 -74.5v114q53 0 79 31t26 96v39h-119z" />
<glyph unicode="&#x201a;" horiz-adv-x="452" d="M61 -80v266h252q49 -110 49 -223q0 -127 -66.5 -209t-205.5 -82v111q53 0 78 25.5t25 91.5v20h-132z" />
<glyph unicode="&#x201c;" horiz-adv-x="792" d="M86 1403q0 131 65.5 205.5t192.5 74.5v-112q-53 0 -78.5 -32t-25.5 -97v-37h118v-225h-237q-35 117 -35 223zM432 1403q0 131 65.5 205.5t192.5 74.5v-112q-53 0 -78.5 -32t-25.5 -97v-37h119v-225h-238q-35 117 -35 223z" />
<glyph unicode="&#x201d;" horiz-adv-x="792" d="M88 1460v223h238q32 -108 32 -221q0 -133 -64.5 -207.5t-191.5 -74.5v114q53 0 79 31t26 96v39h-119zM434 1460v223h238q35 -117 35 -221q0 -131 -66 -206.5t-192 -75.5v114q53 0 78.5 31t25.5 96v39h-119z" />
<glyph unicode="&#x201e;" horiz-adv-x="792" d="M88 0v223h238q32 -108 32 -221q0 -133 -64.5 -207.5t-191.5 -74.5v114q53 0 79 31t26 96v39h-119zM434 0v223h238q35 -117 35 -221q0 -131 -66 -206.5t-192 -75.5v114q53 0 78.5 31t25.5 96v39h-119z" />
<glyph unicode="&#x2022;" horiz-adv-x="868" d="M147 682q0 80 38 146.5t104.5 104.5t144.5 38q80 0 145.5 -38t103.5 -104.5t38 -146.5q0 -78 -38 -143.5t-103.5 -103.5t-145.5 -38q-78 0 -144.5 38t-104.5 103.5t-38 143.5z" />
<glyph unicode="&#x2026;" horiz-adv-x="1345" d="M59 0v301h312v-301h-312zM516 0v301h312v-301h-312zM972 0v301h312v-301h-312z" />
<glyph unicode="&#x202f;" horiz-adv-x="406" />
<glyph unicode="&#x2039;" horiz-adv-x="645" d="M92 604l182 359h269l-187 -359l187 -358h-269z" />
<glyph unicode="&#x203a;" horiz-adv-x="645" d="M102 246l189 358l-189 359h271l180 -359l-180 -358h-271z" />
<glyph unicode="&#x205f;" horiz-adv-x="507" />
<glyph unicode="&#x20ac;" horiz-adv-x="1656" d="M35 508v135h155q-4 53 -4 80q0 49 2 72h-153v137h174q57 244 237.5 386t440.5 142q270 0 448 -139t236 -379h-305q-47 117 -146.5 184.5t-238.5 67.5q-127 0 -223.5 -68.5t-141.5 -193.5h414v-137h-445q-4 -45 -4 -72t4 -80h445v-135h-412q45 -119 141.5 -186.5 t221.5 -67.5q139 0 238.5 67.5t146.5 184.5h305q-57 -240 -235.5 -379t-448.5 -139q-258 0 -437.5 141t-238.5 379h-176z" />
<glyph unicode="&#x2122;" horiz-adv-x="1728" d="M61 1274v172h590v-172h-192v-545h-205v545h-193zM748 729v717h276l178 -473l205 473h252v-717h-191l-4 459l-196 -459h-144l-196 477v-477h-180z" />
<glyph unicode="&#x25fc;" horiz-adv-x="1136" d="M0 0v1137h1137v-1137h-1137z" />
<glyph unicode="&#xfb01;" horiz-adv-x="1280" d="M31 891v244h143v26q0 205 113.5 313.5t335.5 108.5l53 -2v-250q-119 6 -166 -38t-47 -156v-2h663v-1135h-288v891h-375v-891h-289v891h-143zM805 1430q0 68 48 109.5t130 41.5t130 -42t48 -109q0 -68 -48 -109t-130 -41t-130 41t-48 109z" />
<glyph unicode="&#xfb02;" horiz-adv-x="1243" d="M29 891v244h145v26q0 203 116 312.5t343 109.5q39 0 59 -2v-250q-127 8 -178 -37t-51 -157v-2h229v-244h-229v-891h-289v891h-145zM840 0v1516h289v-1516h-289z" />
</font>
</defs>
</svg>
